<svg xmlns="http://www.w3.org/2000/svg" width="240" height="240" viewBox="0 0 240 240"><path d="M166.667,45v.328C164.458,45.141,162.25,45,160,45H106.667A72.079,72.079,0,0,0,86.75,47.813c-.042-.937-.083-1.875-.083-2.812,0-24.844,17.917-45,40-45S166.667,20.156,166.667,45ZM160,60c1.458,0,2.917.047,4.333.141,1.75.141,3.5.328,5.25.609C176.917,51.141,187.833,45,200,45h13.333L205.5,80.2A76.207,76.207,0,0,1,221.125,105h5.542c7.375,0,13.333,6.7,13.333,15v45c0,8.3-5.958,15-13.333,15H213.333A72.2,72.2,0,0,1,200,195v30c0,8.3-5.958,15-13.333,15H173.333C165.958,240,160,233.3,160,225V210H106.667v15c0,8.3-5.958,15-13.333,15H80c-7.375,0-13.333-6.7-13.333-15V195c-14.542-12.281-24.458-31.078-26.333-52.5h-12C12.667,142.5,0,128.25,0,110.625S12.667,78.75,28.333,78.75H30c5.542,0,10,5.016,10,11.25s-4.458,11.25-10,11.25H28.333c-4.583,0-8.333,4.219-8.333,9.375S23.75,120,28.333,120h13c5.042-28.031,24.042-50.391,48.458-57.563A59.285,59.285,0,0,1,106.667,60Zm26.667,63.75c0-6.213-4.477-11.25-10-11.25s-10,5.037-10,11.25,4.477,11.25,10,11.25S186.667,129.963,186.667,123.75Z" fill="#ffa200"/></svg>