<svg xmlns="http://www.w3.org/2000/svg" width="450" height="450" viewBox="0 0 450 450"><path d="M312.5,84.375v.615c-4.141-.352-8.281-.615-12.5-.615H200a135.147,135.147,0,0,0-37.344,5.273c-.078-1.758-.156-3.516-.156-5.273C162.5,37.793,196.094,0,237.5,0S312.5,37.793,312.5,84.375ZM300,112.5c2.734,0,5.469.088,8.125.264,3.281.264,6.563.615,9.844,1.143C331.719,95.889,352.188,84.375,375,84.375h25l-14.687,66.006a142.888,142.888,0,0,1,29.3,46.494H425c13.828,0,25,12.568,25,28.125v84.375c0,15.557-11.172,28.125-25,28.125H400a135.371,135.371,0,0,1-25,28.125v56.25C375,437.432,363.828,450,350,450H325c-13.828,0-25-12.568-25-28.125V393.75H200v28.125C200,437.432,188.828,450,175,450H150c-13.828,0-25-12.568-25-28.125v-56.25C97.734,342.6,79.141,307.354,75.625,267.187h-22.5C23.75,267.187,0,240.469,0,207.422s23.75-59.766,53.125-59.766H56.25c10.391,0,18.75,9.4,18.75,21.094s-8.359,21.094-18.75,21.094H53.125c-8.594,0-15.625,7.91-15.625,17.578S44.531,225,53.125,225H77.5c9.453-52.559,45.078-94.482,90.859-107.93A111.159,111.159,0,0,1,200,112.5Zm50,119.531c0-11.65-8.395-21.094-18.75-21.094s-18.75,9.444-18.75,21.094,8.395,21.094,18.75,21.094S350,243.681,350,232.031Z" fill="#ffa200"/></svg>