<svg xmlns="http://www.w3.org/2000/svg" xmlns:xlink="http://www.w3.org/1999/xlink" width="313" height="385" viewBox="0 0 313 385">
  <defs>
    <filter id="piggy-bank-solid" x="22" y="0" width="268" height="268" filterUnits="userSpaceOnUse">
      <feOffset dy="5" input="SourceAlpha"/>
      <feGaussianBlur stdDeviation="3" result="blur"/>
      <feFlood flood-opacity="0.161"/>
      <feComposite operator="in" in2="blur"/>
      <feComposite in="SourceGraphic"/>
    </filter>
    <filter id="Cofrinho_Digital_" x="0" y="271" width="313" height="114" filterUnits="userSpaceOnUse">
      <feOffset dy="5" input="SourceAlpha"/>
      <feGaussianBlur stdDeviation="3" result="blur-2"/>
      <feFlood flood-opacity="0.161"/>
      <feComposite operator="in" in2="blur-2"/>
      <feComposite in="SourceGraphic"/>
    </filter>
  </defs>
  <g id="Grupo_1" data-name="Grupo 1" transform="translate(-59 -212)">
    <g transform="matrix(1, 0, 0, 1, 59, 212)" filter="url(#piggy-bank-solid)">
      <path id="piggy-bank-solid-2" data-name="piggy-bank-solid" d="M173.611,46.875v.342c-2.3-.2-4.6-.342-6.944-.342H111.111A75.082,75.082,0,0,0,90.365,49.8c-.043-.977-.087-1.953-.087-2.93C90.278,21,108.941,0,131.944,0S173.611,21,173.611,46.875ZM166.667,62.5c1.519,0,3.038.049,4.514.146,1.823.146,3.646.342,5.469.635,7.639-10.01,19.01-16.406,31.684-16.406h13.889l-8.16,36.67a79.382,79.382,0,0,1,16.276,25.83h5.773c7.682,0,13.889,6.982,13.889,15.625v46.875c0,8.643-6.207,15.625-13.889,15.625H222.222a75.206,75.206,0,0,1-13.889,15.625v31.25c0,8.643-6.207,15.625-13.889,15.625H180.556c-7.682,0-13.889-6.982-13.889-15.625V218.75H111.111v15.625c0,8.643-6.207,15.625-13.889,15.625H83.333c-7.682,0-13.889-6.982-13.889-15.625v-31.25C54.3,190.332,43.967,170.752,42.014,148.437h-12.5C13.194,148.437,0,133.594,0,115.234s13.194-33.2,29.514-33.2H31.25c5.773,0,10.417,5.225,10.417,11.719s-4.644,11.719-10.417,11.719H29.514c-4.774,0-8.681,4.395-8.681,9.766S24.74,125,29.514,125H43.056C48.307,95.8,68.1,72.51,93.533,65.039A61.755,61.755,0,0,1,111.111,62.5Zm27.778,66.406c0-6.472-4.664-11.719-10.417-11.719s-10.417,5.247-10.417,11.719,4.664,11.719,10.417,11.719S194.444,135.378,194.444,128.906Z" transform="translate(31 4)" fill="#ffa200"/>
    </g>
    <g transform="matrix(1, 0, 0, 1, 59, 212)" filter="url(#Cofrinho_Digital_)">
      <text id="Cofrinho_Digital_2" data-name="Cofrinho Digital
" transform="translate(9 314)" fill="#707070" font-size="42" font-family="TrebuchetMS, Trebuchet MS"><tspan x="0" y="0">Cofrinho Digital</tspan><tspan x="0" y="48"></tspan></text>
    </g>
  </g>
</svg>
